<?xml version="1.0" encoding="UTF-8" standalone="no"?>
<!DOCTYPE svg PUBLIC "-//W3C//DTD SVG 1.1//EN" "http://www.w3.org/Graphics/SVG/1.1/DTD/svg11.dtd">
<svg width="100%" height="100%" viewBox="0 0 25 25" version="1.1" xmlns="http://www.w3.org/2000/svg" xmlns:xlink="http://www.w3.org/1999/xlink" xml:space="preserve" xmlns:serif="http://www.serif.com/" style="fill-rule:evenodd;clip-rule:evenodd;stroke-linejoin:round;stroke-miterlimit:2;">
    <g transform="matrix(0.300303,0,0,0.4577,-4.27249,-8.36186)">
        <path d="M20.042,72.62L15.655,72.621L15.655,35.052C16.546,23.73 28.887,18.538 44.15,18.538C55.048,18.538 64.525,22.273 69.317,27.753C85.351,33.954 96.115,41.974 96.048,56.463C96.047,56.681 84.505,54.412 75.598,53.775C66.691,53.137 63.233,53.261 60.64,54.249C66.89,60.596 78.178,66.67 93.377,72.609L80.367,72.611C70.691,66.568 56.951,61.914 42.468,61.914C28.969,61.914 22.582,66.473 20.042,72.62ZM25.941,29.025C25.588,29.247 25.247,29.475 24.916,29.708L38.057,44.633L20.206,44.656C20.426,45.033 20.669,45.404 20.936,45.767L49.683,45.763L41.504,55.102C42.001,55.147 42.502,55.185 43.008,55.214L56.62,39.738L65.005,49.222C65.32,48.958 65.622,48.687 65.913,48.409L52.484,33.158L70.211,33.134C69.953,32.807 69.676,32.485 69.381,32.171L40.894,32.175L48.013,24.046C47.432,24.018 46.847,24 46.257,23.993L33.907,38.036L25.941,29.025Z" style="fill:white;"/>
    </g>
</svg>
