<?xml version="1.0" encoding="UTF-8" standalone="no"?>
<!DOCTYPE svg PUBLIC "-//W3C//DTD SVG 1.1//EN" "http://www.w3.org/Graphics/SVG/1.1/DTD/svg11.dtd">
<svg width="100%" height="100%" viewBox="0 0 100 100" version="1.1" xmlns="http://www.w3.org/2000/svg" xmlns:xlink="http://www.w3.org/1999/xlink" xml:space="preserve" xmlns:serif="http://www.serif.com/" style="fill-rule:evenodd;clip-rule:evenodd;stroke-linejoin:round;stroke-miterlimit:2;">
    <path d="M34.62,46.436C30.36,46.761 24.983,47.471 23.024,48.02C21.782,48.367 21.336,47.585 21.25,46.513C21.118,44.879 21.058,43.525 21.824,42.572C22.591,41.618 22.897,43.959 25.851,40.793C26.53,40.065 27.315,39.579 28.122,39.263C30.82,38.205 31.905,38.732 33.754,39.044C34.53,39.175 35.222,39.147 35.957,39.122C36.661,36.957 37.662,35.002 39.046,33.517C39.046,33.517 39.505,36.728 40.794,39.87C41.997,40.324 43.438,41.039 45.228,42.156C48.04,43.911 48.753,45.813 48.585,47.541C48.4,49.436 47.155,51.122 46.456,52.175C46.228,52.519 46.058,52.795 46.002,52.99C45.778,53.763 45.088,53.036 44.367,52.086C43.845,51.399 43.306,50.594 42.914,50.156C41.931,49.055 42.154,46.928 40.104,46.388C39.335,46.186 37.179,46.241 34.62,46.436ZM50.87,48.924C50.966,47.886 49.853,47.156 49.712,46.182C49.509,44.776 48.651,41.241 49.42,41.164C50.188,41.087 55.708,42.367 54.324,45.722C53.284,48.243 53.025,49.382 52.7,50.067C52.592,50.294 52.478,50.471 52.325,50.632C51.863,51.119 49.819,51.036 50.641,49.605C50.78,49.362 50.851,49.137 50.87,48.924ZM56.795,54.454C56.932,54.991 57.018,55.609 57.04,56.319C57.075,57.428 57.016,58.774 56.899,60.219C56.425,66.099 56.557,71.815 54.994,73.629C53.431,75.442 48.633,73.802 47.521,71.098C46.409,68.394 41.512,65.987 42.022,62.816C42.239,61.47 43.695,59.299 45.358,57.184C46.821,55.324 47.761,53.559 48.688,52.398C49.328,51.598 49.961,51.086 50.755,51.027C52.456,50.901 55.848,50.743 56.795,54.454ZM34.839,54.726C33.027,57.242 31.483,59.357 29.081,60.733C26.332,62.308 21.18,63.749 19.148,63.064C17.116,62.378 18.089,57.634 16.889,56.619C15.69,55.605 15.614,55.75 15.306,55.234C15.013,54.744 14.526,53.766 15.042,53.524C16.639,52.775 19.88,52.018 24.891,50.737C27.8,49.994 30.768,49.327 32.879,49.076C33.487,49.004 34.03,48.934 34.515,48.868C38.622,48.307 38.631,48 39.044,48.676C39.504,49.432 37.55,50.995 35.644,53.611C35.368,53.991 35.1,54.363 34.839,54.726ZM39.694,52.697C39.588,53.294 39.46,54.05 39.507,54.754C39.572,55.726 39.845,56.536 40.582,56.498C42.389,56.405 40.581,60.082 40.66,61.87C40.777,64.536 42.818,69.285 41.286,72.491C39.751,75.702 33.177,80.549 31.451,81.132C29.844,81.674 30.112,77.429 30.93,75.984C31.748,74.54 27.524,77.934 26.841,77.498C26.159,77.063 27.761,74.354 26.836,73.371C25.579,72.037 17.859,72.009 19.299,69.492C21.123,66.301 35.653,57.678 37.784,54.225C37.846,54.125 37.896,54.031 37.933,53.946C38.049,53.678 38.157,53.438 38.257,53.223C39.291,51.004 39.518,51.468 39.757,51.591C39.888,51.659 39.802,52.098 39.694,52.697ZM73.259,29.816C73.729,30.87 65.537,17.632 50.991,23.531C47.106,25.106 40.822,30.618 40.822,30.618C40.822,30.618 43.919,22.283 50.139,20.168C64.241,15.373 70.896,24.515 73.259,29.816ZM46.037,28.677C46.037,28.677 46.961,26.388 52.48,27.569C57.999,28.75 60.447,29.864 60.447,29.864C62.627,30.044 64.417,28.858 65.487,25.157C65.487,25.157 66.437,29.439 66.019,31.277C65.622,33.024 64.652,33.742 63.482,34.627C62.792,35.148 52.605,25.314 46.037,28.677ZM68.223,47.479C68.223,47.479 64.348,47.419 64.232,45.298C64.117,43.19 65.416,43.257 66.992,42.959C68.504,42.673 70.169,42.201 70.29,43.67C70.371,44.648 70.645,45.802 70.645,45.802C70.645,45.802 73.318,44.432 74.605,40.538C75.741,37.098 74.756,34.033 75.355,34.005C76.736,33.94 80.997,39.584 82.545,42.935C85.128,48.524 84.708,60.173 84.092,59.898C82.459,59.167 72.802,56.873 69.364,56.23C67.001,55.789 60.825,53.264 61.635,52.608C61.837,52.445 63.106,53.122 64.973,52.259C67.268,51.198 68.649,47.854 68.649,47.854L68.223,47.479Z"/>
</svg>
